<svg xmlns="http://www.w3.org/2000/svg" viewBox="0 0 250 238.684" role="img" aria-label="Ironguard Safes">
<path fill="#ffffff" d="M0 238.684 L720 238.684 L720 0.009 L0 0.009 Z"/>
<path fill="#181c28" d="M0 238.675 L720 238.675 L720 0 L0 0 Z M0 0 M238.675 8.424 L711.546 8.424 L711.546 230.252 L238.675 230.252 Z"/>
<path fill="#181c28" d="M678.278 191.479 L273.921 191.479 L273.921 137.457 L678.278 137.457 Z"/>
<path fill="#ffffff" d="M428.709 169.689 C428.709 170.811 428.536 171.846 428.134 172.825 C427.788 173.745 427.242 174.579 426.465 175.385 C425.689 176.104 424.797 176.65 423.761 176.995 C422.668 177.398 421.46 177.6 420.166 177.6 C418.641 177.6 417.375 177.369 416.311 176.852 C415.908 176.65 415.563 176.449 415.276 176.19 L415.276 177.197 L411.363 177.197 L411.363 168.711 L415.276 168.711 L415.276 171.012 C415.276 171.501 415.362 171.961 415.506 172.364 C415.621 172.738 415.851 173.055 416.167 173.371 C416.484 173.659 416.915 173.889 417.49 174.061 C418.008 174.234 418.727 174.32 419.648 174.32 C421.46 174.32 422.726 173.975 423.474 173.256 C424.193 172.537 424.567 171.587 424.567 170.379 C424.567 169.373 424.308 168.596 423.733 168.021 C423.157 167.445 422.179 166.956 420.913 166.611 L419.015 166.122 C416.8 165.576 415.045 164.684 413.751 163.476 C412.428 162.239 411.766 160.513 411.766 158.413 C411.766 157.291 411.967 156.342 412.37 155.479 C412.802 154.587 413.377 153.868 414.125 153.235 C414.844 152.631 415.736 152.142 416.771 151.797 C417.749 151.48 418.842 151.337 420.051 151.337 C421.489 151.337 422.64 151.567 423.589 151.998 C423.934 152.171 424.25 152.372 424.538 152.602 L424.538 151.739 L428.421 151.739 L428.421 159.88 L424.538 159.88 L424.538 157.579 C424.538 157.176 424.452 156.745 424.279 156.227 C424.193 155.968 423.991 155.709 423.675 155.45 C423.33 155.191 422.87 154.961 422.323 154.817 C421.719 154.673 420.971 154.587 420.051 154.587 C418.67 154.587 417.606 154.903 416.944 155.479 C416.282 156.112 415.966 156.86 415.966 157.866 C415.966 158.931 416.225 159.679 416.8 160.254 C417.462 160.858 418.526 161.376 419.907 161.75 L421.661 162.21 C423.905 162.785 425.602 163.648 426.782 164.856 C428.076 166.065 428.709 167.704 428.709 169.689"/>
<path fill="#ffffff" d="M443.668 166.294 L446.861 156.916 L449.996 166.294 Z M457.36 174.147 L449.766 152.228 L449.594 151.739 L445.279 151.739 L445.106 152.228 L437.483 174.147 L435.47 174.147 L435.47 177.196 L443.841 177.196 L443.841 174.147 L441.05 174.147 L442.69 169.372 L451.003 169.372 L452.643 174.147 L449.824 174.147 L449.824 177.196 L459.374 177.196 L459.374 174.147 Z"/>
<path fill="#ffffff" d="M468.023 151.739 L467.304 151.739 L467.304 152.458 L467.304 154.04 L467.304 154.759 L468.023 154.759 L469.864 154.759 L469.864 174.147 L468.023 174.147 L467.304 174.147 L467.304 174.866 L467.304 176.477 L467.304 177.196 L468.023 177.196 L476.825 177.196 L477.544 177.196 L477.544 176.477 L477.544 174.866 L477.544 174.147 L476.825 174.147 L474.265 174.147 L474.265 166.179 L479.644 166.179 L479.644 167.502 L479.644 168.222 L480.363 168.222 L482.434 168.222 L483.153 168.222 L483.153 167.502 L483.153 161.749 L483.153 161.03 L482.434 161.03 L480.363 161.03 L479.644 161.03 L479.644 161.749 L479.644 163.073 L474.265 163.073 L474.265 154.874 L482.578 154.874 L482.578 156.917 L482.578 157.636 L483.297 157.636 L485.771 157.636 L486.49 157.636 L486.49 156.917 L486.49 152.458 L486.49 151.739 L485.771 151.739 Z"/>
<path fill="#ffffff" d="M511.481 170.581 L510.762 170.581 L510.762 171.299 L510.762 174.061 L502.103 174.061 L502.103 165.661 L507.483 165.661 L507.483 166.984 L507.483 167.704 L508.202 167.704 L510.272 167.704 L510.992 167.704 L510.992 166.984 L510.992 161.231 L510.992 160.512 L510.272 160.512 L508.202 160.512 L507.483 160.512 L507.483 161.231 L507.483 162.555 L502.103 162.555 L502.103 154.875 L510.387 154.875 L510.387 156.916 L510.387 157.637 L511.106 157.637 L513.61 157.637 L514.328 157.637 L514.328 156.916 L514.328 152.459 L514.328 151.739 L513.61 151.739 L495.861 151.739 L495.142 151.739 L495.142 152.459 L495.142 154.041 L495.142 154.76 L495.861 154.76 L497.731 154.76 L497.731 174.148 L495.861 174.148 L495.142 174.148 L495.142 174.867 L495.142 176.477 L495.142 177.197 L495.861 177.197 L513.955 177.197 L514.673 177.197 L514.673 176.477 L514.673 171.299 L514.673 170.581 L513.955 170.581 Z"/>
<path fill="#ffffff" d="M538.95 164.859 C537.757 163.667 536.07 162.796 533.797 162.204 L532.075 161.745 C530.667 161.387 529.623 160.885 528.964 160.253 C528.381 159.669 528.092 158.885 528.092 157.866 C528.092 156.864 528.403 156.108 529.071 155.488 C529.716 154.89 530.762 154.587 532.177 154.587 C533.093 154.587 533.833 154.664 534.44 154.823 C534.991 154.966 535.458 155.18 535.789 155.44 C536.123 155.686 536.328 155.947 536.451 156.278 C536.576 156.63 536.636 157.048 536.636 157.579 L536.636 159.161 L536.636 159.88 L537.355 159.88 L539.858 159.88 L540.577 159.88 L540.577 159.161 L540.577 152.458 L540.577 151.739 L539.858 151.739 L537.355 151.739 L536.636 151.739 L536.636 152.458 L536.636 152.578 C536.361 152.365 536.054 152.177 535.711 152.012 C534.783 151.564 533.594 151.337 532.177 151.337 C530.978 151.337 529.87 151.493 528.885 151.801 C527.851 152.156 526.972 152.634 526.254 153.227 C525.494 153.855 524.923 154.595 524.506 155.492 C524.097 156.412 523.893 157.391 523.893 158.413 C523.893 160.495 524.556 162.197 525.865 163.473 C527.158 164.672 528.927 165.561 531.135 166.128 L533.033 166.617 C534.325 166.953 535.289 167.432 535.897 168.04 C536.422 168.588 536.693 169.379 536.693 170.379 C536.693 171.603 536.325 172.568 535.598 173.248 C534.86 173.962 533.576 174.32 531.774 174.32 C530.863 174.32 530.171 174.239 529.596 174.064 C529.049 173.897 528.623 173.668 528.294 173.362 C527.975 173.066 527.755 172.736 527.62 172.355 C527.477 171.951 527.402 171.487 527.402 171.012 L527.402 169.43 L527.402 168.711 L526.683 168.711 L524.209 168.711 L523.49 168.711 L523.49 169.43 L523.49 176.478 L523.49 177.197 L524.209 177.197 L526.683 177.197 L527.402 177.197 L527.402 176.478 L527.402 176.194 C527.703 176.44 528.044 176.662 528.424 176.858 C529.496 177.361 530.753 177.599 532.292 177.599 C533.578 177.599 534.748 177.407 535.868 177.012 C536.954 176.629 537.873 176.082 538.6 175.386 C539.348 174.639 539.89 173.805 540.269 172.825 C540.65 171.84 540.836 170.815 540.836 169.689 C540.836 167.703 540.201 166.078 538.95 164.859"/>
<path fill="#181c28" d="M278.274 110.868 L278.274 107.558 L283.64 107.558 L283.64 64.118 L278.274 64.118 L278.274 60.827 L295.196 60.827 L295.196 64.118 L289.81 64.118 L289.81 107.558 L295.196 107.558 L295.196 110.868 Z"/>
<path fill="#181c28" d="M311.014 84.352 L311.014 64.331 L322.285 64.331 C324.865 64.331 326.852 65.162 328.247 66.793 C329.611 68.395 330.323 70.382 330.323 72.725 L330.323 76.017 C330.323 78.362 329.611 80.349 328.247 81.95 C326.852 83.552 324.865 84.352 322.285 84.352 Z M341.86 107.546 C340.081 107.546 338.598 107.16 337.411 106.331 C336.225 105.529 335.157 104.254 334.179 102.534 L325.785 86.992 C329.433 86.339 332.191 84.856 334.06 82.572 C335.958 80.319 336.907 77.471 336.907 74.09 C336.907 69.701 335.691 66.379 333.2 64.153 C330.768 61.929 327.297 60.831 322.848 60.831 L299.476 60.831 L299.476 64.124 L304.874 64.124 L304.874 107.546 L299.476 107.546 L299.476 110.868 L316.412 110.868 L316.412 107.546 L311.014 107.546 L311.014 87.852 L319.497 87.852 L328.365 104.403 C328.958 105.47 329.522 106.389 330.056 107.19 C330.619 108.022 331.242 108.673 331.954 109.207 C332.666 109.742 333.496 110.156 334.416 110.423 C335.365 110.72 336.522 110.868 337.916 110.868 L342.483 110.868 L342.483 107.546 Z"/>
<path fill="#181c28" d="M380.27 89.928 C380.27 92.568 379.944 94.97 379.262 97.165 C378.609 99.36 377.63 101.258 376.325 102.89 C375.05 104.462 373.448 105.707 371.55 106.597 C369.681 107.487 367.516 107.932 365.084 107.932 C362.622 107.932 360.487 107.487 358.588 106.597 C356.69 105.707 355.118 104.462 353.813 102.89 C352.538 101.258 351.559 99.36 350.877 97.165 C350.224 94.97 349.868 92.568 349.868 89.928 L349.868 81.771 C349.868 79.132 350.224 76.7 350.877 74.505 C351.559 72.31 352.538 70.412 353.813 68.81 C355.118 67.238 356.69 65.992 358.588 65.102 C360.487 64.213 362.622 63.768 365.084 63.768 C367.516 63.768 369.681 64.213 371.55 65.102 C373.448 65.992 375.05 67.238 376.325 68.81 C377.63 70.412 378.609 72.31 379.262 74.505 C379.944 76.7 380.27 79.132 380.27 81.771 Z M385.579 75.069 C384.511 71.865 383.028 69.166 381.101 66.912 C379.173 64.658 376.829 62.968 374.101 61.781 C371.402 60.565 368.376 59.971 365.084 59.971 C361.792 59.971 358.766 60.565 356.038 61.781 C353.309 62.968 350.995 64.658 349.067 66.912 C347.11 69.166 345.627 71.865 344.559 75.069 C343.521 78.242 343.017 81.831 343.017 85.835 C343.017 89.869 343.521 93.458 344.559 96.631 C345.627 99.805 347.11 102.534 349.067 104.788 C350.995 107.012 353.309 108.733 356.038 109.919 C358.766 111.135 361.792 111.728 365.084 111.728 C368.376 111.728 371.402 111.135 374.101 109.919 C376.829 108.733 379.173 107.012 381.101 104.788 C383.028 102.534 384.511 99.805 385.579 96.631 C386.617 93.458 387.151 89.869 387.151 85.835 C387.151 81.831 386.617 78.242 385.579 75.069"/>
<path fill="#181c28" d="M391.105 110.868 L391.105 107.558 L396.471 107.558 L396.471 64.118 L391.105 64.118 L391.105 60.827 L403.209 60.827 L430.099 100.977 L430.374 100.977 L430.374 64.118 L425.007 64.118 L425.007 60.827 L439.696 60.827 L439.696 64.118 L434.33 64.118 L434.33 110.868 L429.512 110.868 L400.702 67.78 L400.408 67.78 L400.408 107.558 L405.794 107.558 L405.794 110.868 Z"/>
<path fill="#181c28" d="M463.786 111.729 L463.786 111.729 C460.626 111.729 457.767 111.128 455.209 109.927 C452.662 108.739 450.481 107.029 448.666 104.796 C446.851 102.576 445.442 99.867 444.436 96.668 C443.43 93.469 442.928 89.859 442.928 85.837 C442.928 81.685 443.43 77.996 444.436 74.771 C445.442 71.546 446.871 68.837 448.726 66.643 C450.592 64.437 452.851 62.772 455.501 61.649 C458.152 60.526 461.13 59.965 464.433 59.965 C468.298 59.965 471.281 60.507 473.383 61.59 C475.486 62.661 476.823 63.934 477.399 65.41 L477.77 65.41 L477.77 60.827 L482.921 60.827 L482.921 75.457 L477.77 75.457 L477.77 71.932 C477.77 69.255 476.647 67.225 474.401 65.84 C472.155 64.456 469.094 63.764 465.216 63.764 C462.591 63.764 460.313 64.182 458.38 65.018 C456.435 65.854 454.829 67.035 453.562 68.563 C452.296 70.091 451.356 71.918 450.743 74.047 C450.115 76.175 449.803 78.558 449.803 81.195 L449.803 90.361 C449.803 92.947 450.149 95.303 450.84 97.432 C451.532 99.547 452.524 101.349 453.817 102.837 C455.111 104.313 456.663 105.462 458.478 106.284 C460.293 107.094 462.298 107.499 464.491 107.499 C466.32 107.499 468.017 107.257 469.584 106.774 C471.163 106.304 472.529 105.612 473.678 104.698 C474.827 103.784 475.721 102.661 476.361 101.329 C477.013 99.984 477.339 98.431 477.339 96.668 L477.339 90.009 L468.447 90.009 L468.447 86.699 L488.15 86.699 L488.15 90.009 L483.567 90.009 L483.567 110.867 L481.197 110.867 L477.77 103.914 L477.476 103.914 C477.099 104.868 476.524 105.808 475.753 106.735 C474.995 107.675 474.055 108.51 472.933 109.242 C471.81 109.986 470.478 110.587 468.938 111.044 C467.409 111.5 465.692 111.729 463.786 111.729"/>
<path fill="#181c28" d="M514.317 111.729 L514.317 111.729 C511.066 111.729 508.285 111.37 505.974 110.652 C503.649 109.934 501.75 108.759 500.274 107.126 C498.786 105.507 497.709 103.431 497.043 100.898 C496.377 98.365 496.044 95.258 496.044 91.576 L496.044 64.117 L490.658 64.117 L490.658 60.827 L507.58 60.827 L507.58 64.117 L502.213 64.117 L502.213 92.731 C502.213 95.264 502.429 97.458 502.86 99.312 C503.29 101.179 503.995 102.726 504.975 103.954 C505.954 105.168 507.227 106.082 508.794 106.696 C510.374 107.322 512.332 107.636 514.67 107.636 C519.357 107.636 522.68 106.408 524.638 103.954 C526.597 101.486 527.576 97.745 527.576 92.731 L527.576 64.117 L522.21 64.117 L522.21 60.827 L536.899 60.827 L536.899 64.117 L531.533 64.117 L531.533 90.655 C531.533 94.285 531.245 97.425 530.671 100.076 C530.096 102.726 529.124 104.913 527.753 106.637 C526.395 108.36 524.619 109.64 522.425 110.476 C520.219 111.311 517.516 111.729 514.317 111.729"/>
<path fill="#181c28" d="M549.362 91.145 L557.964 66.052 L558.409 66.052 L566.772 91.145 Z M578.963 107.547 L562.768 60.832 L555.976 60.832 L539.693 107.547 L535.896 107.547 L535.896 110.869 L550.371 110.869 L550.371 107.547 L543.934 107.547 L548.383 94.586 L567.87 94.586 L572.319 107.547 L565.853 107.547 L565.853 110.869 L582.76 110.869 L582.76 107.547 Z"/>
<path fill="#181c28" d="M595.84 84.352 L595.84 64.331 L607.081 64.331 C609.662 64.331 611.649 65.162 613.013 66.793 C614.407 68.395 615.089 70.382 615.089 72.725 L615.089 76.017 C615.089 78.362 614.407 80.349 613.013 81.95 C611.649 83.552 609.662 84.352 607.081 84.352 Z M626.627 107.546 C624.877 107.546 623.394 107.16 622.208 106.331 C620.992 105.529 619.924 104.254 618.975 102.534 L610.611 86.992 C614.229 86.339 616.988 84.856 618.856 82.572 C620.755 80.319 621.704 77.471 621.704 74.09 C621.704 69.701 620.458 66.379 617.996 64.153 C615.534 61.929 612.094 60.831 607.645 60.831 L584.273 60.831 L584.273 64.124 L589.671 64.124 L589.671 107.546 L584.273 107.546 L584.273 110.868 L601.208 110.868 L601.208 107.546 L595.84 107.546 L595.84 87.852 L604.264 87.852 L613.162 104.403 C613.725 105.47 614.289 106.389 614.852 107.19 C615.386 108.022 616.039 108.673 616.75 109.207 C617.462 109.742 618.293 110.156 619.242 110.423 C620.161 110.72 621.318 110.868 622.712 110.868 L627.28 110.868 L627.28 107.546 Z"/>
<path fill="#181c28" d="M665.067 90.136 C665.067 92.746 664.681 95.089 663.94 97.165 C663.228 99.271 662.16 101.081 660.796 102.593 C659.432 104.076 657.771 105.263 655.783 106.093 C653.796 106.924 651.601 107.339 649.169 107.339 L640.419 107.339 L640.419 64.332 L649.169 64.332 C651.601 64.332 653.796 64.747 655.783 65.577 C657.771 66.438 659.432 67.624 660.796 69.107 C662.16 70.62 663.228 72.429 663.94 74.505 C664.681 76.611 665.067 78.954 665.067 81.535 Z M670.346 74.861 C669.249 71.717 667.766 69.107 665.838 67.031 C663.881 64.955 661.567 63.383 658.838 62.374 C656.11 61.336 653.084 60.832 649.822 60.832 L628.882 60.832 L628.882 64.124 L634.25 64.124 L634.25 107.546 L628.882 107.546 L628.882 110.868 L649.822 110.868 C653.084 110.868 656.11 110.364 658.838 109.326 C661.567 108.288 663.881 106.746 665.838 104.67 C667.766 102.593 669.249 99.983 670.346 96.839 C671.414 93.725 671.948 90.047 671.948 85.835 C671.948 81.624 671.414 77.975 670.346 74.861"/>
<path fill="#ffffff" d="M157.525 127.271 C157.228 127.182 157.021 127.182 156.932 127.182 C155.745 127.182 154.737 127.983 154.5 129.08 C154.292 129.94 154.055 130.83 153.758 131.72 C151.801 138.008 148.212 143.732 142.458 149.753 C136.288 156.19 127.509 163.041 115.615 170.753 L115.497 170.753 L115.259 170.812 L115.2 170.812 C115.052 170.783 114.933 170.783 114.874 170.783 L114.844 170.783 C102.921 163.071 94.141 156.19 87.972 149.753 C82.188 143.762 78.599 138.008 76.642 131.72 C76.375 130.86 76.138 129.97 75.93 129.051 C75.693 127.983 74.684 127.182 73.498 127.182 C73.379 127.182 73.142 127.182 72.875 127.271 C71.777 127.538 71.006 128.457 71.006 129.555 C71.006 129.644 71.006 129.881 71.095 130.148 C71.273 131.038 71.511 131.957 71.866 133.084 C72.964 136.555 74.447 139.788 76.404 142.961 C78.481 146.342 81.061 149.605 84.294 152.986 C87.527 156.368 91.442 159.838 96.218 163.575 C101.052 167.312 106.48 171.109 112.827 175.202 L112.827 175.736 L114.31 175.765 C114.458 175.765 114.577 175.765 114.696 175.736 L115.052 175.765 L115.615 175.765 L115.704 175.736 L116.09 175.736 C116.535 175.706 116.92 175.587 117.246 175.439 L117.336 175.38 L117.395 175.35 C124.217 170.931 129.556 167.194 134.182 163.575 C139.076 159.749 142.991 156.279 146.106 152.957 C149.368 149.575 151.979 146.313 154.025 142.961 C156.042 139.699 157.495 136.466 158.533 133.114 L158.593 132.877 C158.889 131.928 159.127 131.008 159.364 130.118 L159.394 129.94 L159.394 129.881 C159.423 129.792 159.423 129.673 159.423 129.555 C159.423 128.457 158.622 127.508 157.525 127.271"/>
<path fill="#ffffff" d="M114.014 118.789 L116.387 118.789 L116.387 128.102 L114.014 128.102 Z M114.014 128.102 M119.056 130.742 C119.59 130.327 119.886 129.704 119.886 128.992 L119.886 117.899 C119.886 117.217 119.59 116.564 119.056 116.149 C118.7 115.793 118.077 115.526 117.395 115.526 L113.005 115.526 C112.323 115.526 111.7 115.793 111.255 116.238 C110.81 116.564 110.514 117.217 110.514 117.899 L110.514 128.992 C110.514 129.674 110.81 130.327 111.344 130.742 C111.7 131.098 112.323 131.365 113.005 131.365 L117.395 131.365 C118.018 131.365 118.641 131.127 119.056 130.742"/>
<path fill="#ffffff" d="M101.942 93.874 C102.12 93.281 102.061 92.628 101.734 92.065 C101.408 91.501 100.845 91.086 100.192 90.938 C99.925 90.849 99.688 90.849 99.54 90.849 C98.442 90.849 97.493 91.531 97.167 92.539 C96.84 93.667 96.662 94.823 96.662 95.98 L96.662 104.433 L93.489 104.433 C91.502 104.433 89.87 105.946 89.87 107.814 L89.87 133.975 C89.87 138.661 94.023 142.457 99.154 142.457 L100.429 142.457 C101.794 142.457 102.921 141.39 102.921 140.055 C102.921 138.75 101.794 137.682 100.429 137.682 L99.154 137.682 C97.967 137.682 96.87 137.267 96.04 136.555 C95.268 135.843 94.853 134.953 94.853 133.975 L94.853 109.179 L98.768 109.179 L99.154 109.208 L131.899 109.208 L131.928 109.179 L135.576 109.179 L135.576 133.648 C135.576 134.686 135.102 135.665 134.271 136.436 C133.352 137.237 132.166 137.682 130.861 137.682 L118.018 137.682 C116.653 137.682 115.526 138.75 115.526 140.055 C115.526 141.39 116.653 142.457 118.018 142.457 L130.861 142.457 C136.17 142.457 140.53 138.513 140.559 133.648 L140.559 107.814 C140.559 105.946 138.928 104.433 136.911 104.433 L133.767 104.433 L133.767 95.98 C133.767 88.683 127.212 82.751 119.145 82.751 L111.285 82.751 C109.921 82.751 108.793 83.819 108.793 85.124 C108.793 86.459 109.921 87.527 111.285 87.527 L119.145 87.527 C121.725 87.527 124.187 88.417 126.026 90.048 C127.806 91.649 128.784 93.755 128.784 95.98 L128.784 104.433 L101.645 104.433 L101.645 95.98 C101.645 95.268 101.734 94.527 101.942 93.874"/>
<path fill="#ffffff" d="M160.016 102.98 L159.927 101.794 C159.393 94.913 158.889 87.527 158.889 79.252 L158.889 77.502 C158.889 76.761 158.533 76.049 157.94 75.633 C157.495 75.307 156.961 75.129 156.398 75.129 L156.131 75.129 C155.36 75.248 154.529 75.278 153.491 75.278 C148.271 75.278 143.584 73.468 139.58 69.939 C138.364 68.812 137.237 67.566 136.199 66.142 C135.932 65.786 135.724 65.43 135.546 65.193 L135.428 65.015 C135.398 64.926 135.339 64.807 135.28 64.719 L135.25 64.6 L135.131 64.451 C134.657 63.71 133.856 63.265 132.966 63.265 L97.433 63.265 C96.573 63.265 95.802 63.68 95.357 64.363 L95.327 64.392 L95.149 64.719 C94.645 65.608 93.044 68.1 90.226 70.443 C86.37 73.646 81.891 75.278 76.938 75.278 C75.9 75.278 75.069 75.248 74.298 75.129 L74.031 75.129 C73.438 75.129 72.815 75.337 72.37 75.722 C71.896 76.078 71.51 76.79 71.51 77.502 C71.51 77.65 71.51 77.769 71.54 77.888 L71.54 79.193 C71.54 87.349 71.006 94.616 70.561 100.993 L70.502 101.734 L70.413 102.921 C70.146 106.747 69.908 110.365 69.79 113.836 C69.79 114.577 70.087 115.23 70.591 115.645 C70.947 116.031 71.599 116.297 72.252 116.297 C73.586 116.297 74.684 115.289 74.773 114.014 C74.862 110.395 75.129 106.658 75.485 102.12 C75.93 95.684 76.463 88.417 76.493 80.053 L76.938 80.053 C80.557 80.053 83.997 79.341 87.171 77.977 C89.692 76.879 92.065 75.366 94.2 73.409 C96.365 71.511 97.878 69.523 98.857 68.04 L131.572 68.04 C132.551 69.523 134.063 71.481 136.199 73.409 C138.334 75.337 140.707 76.879 143.258 77.977 C146.432 79.341 149.872 80.053 153.461 80.053 L153.906 80.053 C153.936 88.061 154.44 95.12 154.885 101.378 L154.944 102.15 L155.033 103.336 C155.3 107.103 155.537 110.662 155.656 113.984 C155.656 115.259 156.753 116.297 158.147 116.297 C158.77 116.297 159.364 116.06 159.838 115.645 C160.342 115.23 160.639 114.607 160.639 113.895 C160.52 110.395 160.283 106.806 160.016 102.98"/>
</svg>